<?xml version="1.0" encoding="UTF-8"?>
<svg width="107px" height="80px" viewBox="0 0 107 80" version="1.1" xmlns="http://www.w3.org/2000/svg" xmlns:xlink="http://www.w3.org/1999/xlink">
    <title>编组</title>
    <g id="25年需求" stroke="none" stroke-width="1" fill="none" fill-rule="evenodd">
        <g id="工智道" transform="translate(-245.000000, -98.000000)">
            <g id="编组" transform="translate(245.000000, 98.000000)">
                <rect id="矩形" x="0" y="0" width="106" height="80"></rect>
                <path d="M13.9501272,70.0558757 L11.9497475,70.8492424 L11.9497475,70.8492424 L12.7431142,68.8488627 C13.4944746,66.9543968 13.4944746,64.8445931 12.7431142,62.9501272 L11.9497475,60.9497475 L11.9497475,60.9497475 L13.9501272,61.7431142 C15.8445931,62.4944746 17.9543968,62.4944746 19.8488627,61.7431142 L21.8492424,60.9497475 L21.8492424,60.9497475 L21.0558757,62.9501272 C20.3045153,64.8445931 20.3045153,66.9543968 21.0558757,68.8488627 L21.8492424,70.8492424 L21.8492424,70.8492424 L19.8488627,70.0558757 C17.9543968,69.3045153 15.8445931,69.3045153 13.9501272,70.0558757 Z" id="星形" fill="#FFFFFF" transform="translate(16.899495, 65.899495) rotate(-45.000000) translate(-16.899495, -65.899495) "></path>
                <path d="M29.0253161,61.1386079 L27.3180195,61.8157355 L27.3180195,61.8157355 L27.9951471,60.1084388 C28.3708273,59.1612059 28.3708273,58.106304 27.9951471,57.1590711 L27.3180195,55.4517744 L27.3180195,55.4517744 L29.0253161,56.128902 C29.9725491,56.5045822 31.0274509,56.5045822 31.9746839,56.128902 L33.6819805,55.4517744 L33.6819805,55.4517744 L33.0048529,57.1590711 C32.6291727,58.106304 32.6291727,59.1612059 33.0048529,60.1084388 L33.6819805,61.8157355 L33.6819805,61.8157355 L31.9746839,61.1386079 C31.0274509,60.7629276 29.9725491,60.7629276 29.0253161,61.1386079 Z" id="星形备份" fill="#FFFFFF" transform="translate(30.500000, 58.633755) rotate(-45.000000) translate(-30.500000, -58.633755) "></path>
                <path d="M98.0989184,6.63856025 L98.1506788,6.74328183 L101.667259,15.0278255 C101.883054,15.5362063 101.645866,16.1232666 101.137485,16.3390615 C100.665417,16.5394424 100.125508,16.3492414 99.8780097,15.9140093 L99.8262493,15.8092878 L97.3330614,9.93568898 C93.4755495,19.9542598 86.6440507,30.7456574 76.9590345,38.1689154 C73.9562602,40.4704468 70.8643057,42.1786818 67.9058231,43.2507958 L67.506252,43.3915099 L67.4209837,43.5933927 C67.2265585,44.0387216 67.0130337,44.4901119 66.7800577,44.9470279 L66.601673,45.2907427 C60.0553997,57.6874124 50.2605553,65.6954231 37.2652216,69.2664311 C36.7326773,69.4127697 36.1823339,69.0996882 36.0359953,68.5671439 C35.8896566,68.0345996 36.2027381,67.4842562 36.7352824,67.3379175 C48.9941477,63.9692848 58.2441827,56.5123136 64.5312157,44.9209258 L64.8331148,44.3568253 L64.956252,44.1175099 L64.7420411,44.1659701 C62.8111522,44.5776641 60.9799496,44.6864015 59.3190054,44.4786084 L58.9891075,44.4328253 C53.8277328,43.6448546 51.3063854,39.7830912 52.9326344,34.5670672 C54.5220142,29.4692973 60.0037585,27.3221996 64.4650575,29.4526115 C68.2826509,31.2756335 69.8530757,35.389981 68.4472863,40.6855811 L68.382252,40.9185099 L68.5297135,40.8578824 C70.7569474,39.9118481 73.0655609,38.5825626 75.3411595,36.8849498 L75.7423697,36.5815507 C85.1782281,29.3492642 91.861563,18.7096668 95.579708,8.92068227 L89.3363614,11.571098 C88.8642936,11.7714789 88.3243846,11.5812779 88.0768859,11.1460458 L88.0251255,11.0413242 C87.8247445,10.5692564 88.0149456,10.0293474 88.4501776,9.78184867 L88.5548992,9.73008826 L96.8394429,6.21350811 C97.3115107,6.01312718 97.8514197,6.20332821 98.0989184,6.63856025 Z M54.8419857,35.1623636 C53.5858406,39.191318 55.3215217,41.8497337 59.290944,42.4557328 C61.2029349,42.7476304 63.4351235,42.5322845 65.8278046,41.8305303 L66.005252,41.7765099 L66.1130203,41.4886237 C67.8974686,36.5241513 66.808712,32.9131488 63.7904143,31.350499 L63.6032177,31.2573918 C60.2099135,29.6369814 56.0576148,31.2633599 54.8419857,35.1623636 Z" id="形状结合" stroke="#FFFFFF" fill="#FFFFFF" fill-rule="nonzero"></path>
            </g>
        </g>
    </g>
</svg>